<svg id="Layer_1" data-name="Layer 1" xmlns="http://www.w3.org/2000/svg" viewBox="0 0 92.83 58.13"><defs><style>.cls-1{font-size:6.41px;font-family:Montserrat-Bold, Montserrat;font-weight:700;letter-spacing:0.32em;}.cls-1,.cls-4{fill:#82a963;}.cls-2{fill:#ccdf92;}.cls-12,.cls-3{fill:#64804d;}.cls-5{fill:#ffd400;}.cls-6{fill:#86c11f;}.cls-7{fill:#ff6b06;}.cls-8{fill:#2a9ed1;}.cls-9{fill:#188eb7;}.cls-10{fill:#70c9e8;}.cls-11{fill:#98dbed;}.cls-12{font-size:18.91px;font-family:ScriptMTBold, Script MT Bold;}</style></defs><text class="cls-1" transform="translate(11.96 56.53)">MARKET</text><path class="cls-2" d="M50,54.84a1.32,1.32,0,0,1-.64-.16,1.39,1.39,0,0,1-.6-1.89c.52-1,12.88-24.59,22.45-29,4.44-2.07,9.12-1.3,12.22,2,3.73,4,4.13,10.25,1,15.94A1.4,1.4,0,1,1,82,40.35C85,34.76,83.55,30,81.36,27.68s-5.63-2.95-9-1.39c-8.71,4.05-21,27.56-21.14,27.8A1.4,1.4,0,0,1,50,54.84Z" transform="translate(-7.57 -17.72)"/><path class="cls-3" d="M64,26.9,57.29,33,59,35.11A66.41,66.41,0,0,1,64.83,28Z" transform="translate(-7.57 -17.72)"/><path class="cls-3" d="M68.67,47.08s6.66-.23,10-1.64c-3.11-3.53-8-9.86-11.41-14.29a70.35,70.35,0,0,0-5.68,7.12Z" transform="translate(-7.57 -17.72)"/><path class="cls-2" d="M74.22,26.22a9.77,9.77,0,0,0-1.61.58,10.5,10.5,0,0,0-1,.56A11.9,11.9,0,0,1,73.19,38l2.06,2.53A15,15,0,0,0,74.22,26.22Z" transform="translate(-7.57 -17.72)"/><path class="cls-2" d="M71.2,23.14A9.13,9.13,0,0,0,62,22.48c-9.57,4.45-21.93,28-22.45,29.05a1.4,1.4,0,0,0,.59,1.89,1.52,1.52,0,0,0,.65.16A1.38,1.38,0,0,0,42,52.82c.13-.24,12.43-23.74,21.15-27.8a6.45,6.45,0,0,1,5.22-.21A15,15,0,0,1,71,23.24Z" transform="translate(-7.57 -17.72)"/><path class="cls-4" d="M50.61,26.22,42,34.44a8.61,8.61,0,0,1,2.56,7.22A108.11,108.11,0,0,1,53.23,29.4Z" transform="translate(-7.57 -17.72)"/><path class="cls-4" d="M67.76,47.06l-6.69-8.13c-1.81,2.61-3.54,5.32-5,7.82C62.62,47.22,67.76,47.06,67.76,47.06Z" transform="translate(-7.57 -17.72)"/><path class="cls-4" d="M55.74,32.46a115.7,115.7,0,0,0-9,13.21c1.66.28,3.33.5,5,.68,1.8-3.06,4.17-6.88,6.8-10.56Z" transform="translate(-7.57 -17.72)"/><path class="cls-2" d="M42.11,45.67c-3.78-.44-7.57-1-11.46-1.14a44.94,44.94,0,0,0-5.91.06,16.24,16.24,0,0,0-6,1.54,16.87,16.87,0,0,0-2.59,1.68A13,13,0,0,0,13.94,50a13.81,13.81,0,0,0-2.66,5.47A17.51,17.51,0,0,0,11,61.34a20.13,20.13,0,0,0,1.42,5.6,24.42,24.42,0,0,1-.49-5.63,17.32,17.32,0,0,1,1-5.4,12.1,12.1,0,0,1,2.74-4.48,13.66,13.66,0,0,1,4.29-2.94,15,15,0,0,1,5.06-1,40.83,40.83,0,0,1,5.51.17c3.27.26,6.58.68,9.91,1.13.48-.88,1.08-1.95,1.79-3.16Z" transform="translate(-7.57 -17.72)"/><path class="cls-2" d="M46.39,46.21c-.68,1.16-1.3,2.22-1.82,3.15,1.69.2,3.38.39,5.09.56.48-.88,1.08-1.93,1.76-3.11Z" transform="translate(-7.57 -17.72)"/><path class="cls-2" d="M73,47.22c-.93.09-1.85.23-2.79.27s-1.86.14-2.79.16-1.87.05-2.8.05c-1.87,0-3.74-.1-5.61-.19-1.1-.07-2.19-.16-3.28-.26-.63,1.06-1.22,2.06-1.76,3a85.34,85.34,0,0,0,10.73.06,50.17,50.17,0,0,0,11.46-2,32,32,0,0,0,10.26-5.24,39,39,0,0,1-10.66,3.64C74.83,46.93,73.91,47.09,73,47.22Z" transform="translate(-7.57 -17.72)"/><path class="cls-5" d="M36.28,32.75a7.77,7.77,0,0,0-7,11.25c.86,0,1.71,0,2.55.06,3.63.18,7.17.63,10.7,1a7.7,7.7,0,0,0,1.5-4.57A7.78,7.78,0,0,0,36.28,32.75Zm1.93,5.33c-4.53.8-6.56-2.15-5.05-3.4-.07,1,.84,2.45,3.61,2.56,2.36.09,4.21-.68,3.4-2.56C40.17,34.68,42,37.4,38.21,38.08Z" transform="translate(-7.57 -17.72)"/><path class="cls-6" d="M36.56,34.72s.73-7.37,8-7.72C43.15,32.33,41.61,33.94,36.56,34.72Z" transform="translate(-7.57 -17.72)"/><path class="cls-6" d="M17.13,27.38s-2.41-4.23-2.16-7.1,2.68-2.05,2.93-1a1,1,0,0,1-.84,1.25s1.19-.34,1.38.44-1.11,1.34-1.57.91c1.3,1-.08,2-.8,1.19a16.35,16.35,0,0,0,1.66,4.14Z" transform="translate(-7.57 -17.72)"/><path class="cls-6" d="M16.79,27.61a1.88,1.88,0,0,1,.56-.25,12.41,12.41,0,0,0-3.42-4.5c-2.39-1.6-3.27.8-2.62,1.65a1,1,0,0,0,1.45.16c-.19.16-.9.77-.48,1.32S14,26,14,25.34c-.07,1.61,1.62,1.2,1.42.12A10.11,10.11,0,0,1,16.79,27.61Z" transform="translate(-7.57 -17.72)"/><path class="cls-7" d="M28.42,38.13c-2-4.9-4.85-11-6.56-12.36-2.43-1.89-8.79-.06-8.42,4.64.3,3.75,7.24,11.13,10,13.91A36.48,36.48,0,0,1,28.79,44,7.73,7.73,0,0,1,28.42,38.13Zm-2.27-2L26,35.73a1.24,1.24,0,0,0-.59.07,1.91,1.91,0,0,0-.59.36,2.77,2.77,0,0,0-.48.54,5.32,5.32,0,0,0-.37.66,5.55,5.55,0,0,1,.25-.72,3.85,3.85,0,0,1,.39-.68,2.65,2.65,0,0,1,.61-.54,1.75,1.75,0,0,1,.51-.2l-.38-.72a2,2,0,0,0-.72.07,2.55,2.55,0,0,0-.77.35,3.31,3.31,0,0,0-.65.59,4.89,4.89,0,0,0-.5.75,5.22,5.22,0,0,1,.39-.83,3.73,3.73,0,0,1,.58-.73,3.15,3.15,0,0,1,.81-.53,3,3,0,0,1,.6-.18c-.12-.21-.24-.43-.35-.65a2.67,2.67,0,0,0-.92.09,3.27,3.27,0,0,0-.93.43,3.69,3.69,0,0,0-.77.71,6,6,0,0,0-.6.89,5.47,5.47,0,0,1,.48-1,3.91,3.91,0,0,1,.72-.85,3.41,3.41,0,0,1,1-.61,3.33,3.33,0,0,1,.78-.22c-.14-.24-.27-.49-.4-.74a4,4,0,0,0-1.08.09,3.84,3.84,0,0,0-1.12.44,4.18,4.18,0,0,0-1,.76,5.75,5.75,0,0,0-.75,1,6.06,6.06,0,0,1,.64-1.1,5,5,0,0,1,.92-.91,4.18,4.18,0,0,1,1.17-.6,4.46,4.46,0,0,1,.89-.22c-.13-.24-.27-.48-.4-.73a5.2,5.2,0,0,0-1.35.11,5.07,5.07,0,0,0-1.4.49,5.26,5.26,0,0,0-1.22.88,6.55,6.55,0,0,0-1,1.19,6.15,6.15,0,0,1,.87-1.28,5.3,5.3,0,0,1,1.18-1,5.38,5.38,0,0,1,1.44-.66A5.45,5.45,0,0,1,23,30.28L22.88,30c-.13-.24-.27-.47-.41-.7a5.24,5.24,0,0,0-1.41.1,5.45,5.45,0,0,0-1.4.5,5,5,0,0,0-1.22.88,6.23,6.23,0,0,0-1,1.19,6.59,6.59,0,0,1,.86-1.29,5.27,5.27,0,0,1,1.19-1,5.76,5.76,0,0,1,2.62-.9l-.45-.7L21.57,28a5.07,5.07,0,0,0-1.44.1,5.16,5.16,0,0,0-1.41.5,5,5,0,0,0-1.22.88,6.43,6.43,0,0,0-1,1.18,6.11,6.11,0,0,1,.86-1.28,5,5,0,0,1,1.18-1A5.9,5.9,0,0,1,20,27.64a6.51,6.51,0,0,1,1.15-.23L21,27.2a1.84,1.84,0,0,0-.79-.61,4,4,0,0,0-2.17.13,9.81,9.81,0,0,0-2.09.89,8.47,8.47,0,0,1,2-1.15,4.34,4.34,0,0,1,2.35-.29,1.6,1.6,0,0,1,.33.11,2.53,2.53,0,0,1,.27.18,3.61,3.61,0,0,1,.45.42,9.31,9.31,0,0,1,.74.92,22.38,22.38,0,0,1,1.25,2q1.14,2,2.1,4.11c.64,1.4,1.24,2.81,1.76,4.26Z" transform="translate(-7.57 -17.72)"/><path class="cls-8" d="M28.09,18.91l9.05,3.7-2,9.78a8.23,8.23,0,0,0-6.52,5,59.37,59.37,0,0,0-3.26-7.15l1.53-10.71A.84.84,0,0,1,28.09,18.91Z" transform="translate(-7.57 -17.72)"/><path class="cls-9" d="M37.89,22.61l6.17-1.22L43,26.89s-4.24.36-6.32,5.37l-1.49.13Z" transform="translate(-7.57 -17.72)"/><path class="cls-9" d="M28.49,18.68l9,3.71,6.4-1.14-8.17-3.31a2.53,2.53,0,0,0-1.09-.18Z" transform="translate(-7.57 -17.72)"/><path class="cls-10" d="M41.42,20.89h0l.35-1.46L36.61,18.2l-.37,1.51c-.11.46,1,1.1,2.39,1.44s2.68.25,2.79-.2C41.43,20.93,41.42,20.91,41.42,20.89Z" transform="translate(-7.57 -17.72)"/><ellipse class="cls-11" cx="39.21" cy="18.75" rx="0.85" ry="2.66" transform="translate(4.31 34.82) rotate(-76.6)"/><path class="cls-6" d="M16.93,41.34a27.46,27.46,0,0,0,3,1.36L19.67,41c-.91-1-1.85-2.13-2.74-3.26Z" transform="translate(-7.57 -17.72)"/><path class="cls-6" d="M20.27,43.44l-3.78,1.92a.29.29,0,0,1-.38-.12.28.28,0,0,1,.13-.38l3.32-1.69a28.19,28.19,0,0,1-2.93-1.36L12.9,42.87h-.08a.29.29,0,0,1-.27-.2.29.29,0,0,1,.2-.35l3.18-.91a29.17,29.17,0,0,1-2.8-1.81l-2.64.47h-.05a.29.29,0,0,1-.28-.23.3.3,0,0,1,.23-.33l2.13-.37a31.36,31.36,0,0,1-2.77-2.41.28.28,0,0,1,0-.4.27.27,0,0,1,.39,0,30.47,30.47,0,0,0,2.67,2.32l-.41-2.57a.3.3,0,0,1,.24-.32A.29.29,0,0,1,13,36l.49,3.15A29.62,29.62,0,0,0,16.37,41v-4c-.35-.46-.68-.91-1-1.36a44.24,44.24,0,0,0-7.81-1.32c1.45,6.75,5.3,10.39,9.21,12.34.52-.34,1-.66,1.61-1a14.06,14.06,0,0,1,4.43-1.35l-.25-.26C22,44,21.18,43.76,20.27,43.44Z" transform="translate(-7.57 -17.72)"/><path class="cls-6" d="M21.81,43.35c-.45-.47-.95-1-1.47-1.58l.15,1.15C21,43.09,21.41,43.23,21.81,43.35Z" transform="translate(-7.57 -17.72)"/><text class="cls-12" transform="translate(10.84 48.85)">Sukamukti</text></svg>