<?xml version="1.0" encoding="utf-8"?>
<!-- Generator: Adobe Illustrator 25.2.3, SVG Export Plug-In . SVG Version: 6.00 Build 0)  -->
<svg version="1.1" id="Layer_1" xmlns="http://www.w3.org/2000/svg" xmlns:xlink="http://www.w3.org/1999/xlink" x="0px" y="0px"
	 viewBox="0 0 108 90" style="enable-background:new 0 0 108 90;" xml:space="preserve">
<style type="text/css">
	.st0{fill:#82A963;}
	.st1{font-family:'Montserrat-Bold';}
	.st2{font-size:6.4056px;}
	.st3{letter-spacing:2;}
	.st4{fill:#CCDF92;}
	.st5{fill:#64804D;}
	.st6{fill:#FFD400;}
	.st7{fill:#86C11F;}
	.st8{fill:#FF6B06;}
	.st9{fill:#2A9ED1;}
	.st10{fill:#188EB7;}
	.st11{fill:#70C9E8;}
	.st12{fill:#98DBED;}
	.st13{font-family:'ScriptMTBold';}
	.st14{font-size:18.9123px;}
</style>
<text transform="matrix(1 0 0 1 19.5293 74.25)" class="st0 st1 st2 st3">MARKET</text>
<g>
	<path class="st4" d="M49.98,54.84c-0.22,0-0.44-0.05-0.65-0.16c-0.69-0.36-0.95-1.2-0.6-1.89c0.52-1,12.88-24.6,22.45-29.05
		c4.44-2.06,9.12-1.29,12.22,2.01c3.74,3.99,4.13,10.25,1.01,15.94c-0.37,0.68-1.23,0.93-1.9,0.55c-0.68-0.37-0.93-1.23-0.55-1.9
		c3.07-5.6,1.6-10.33-0.6-12.67c-2.27-2.43-5.63-2.95-8.99-1.39c-8.71,4.05-21.02,27.56-21.15,27.8
		C50.98,54.57,50.49,54.84,49.98,54.84z"/>
</g>
<g>
	<path class="st5" d="M63.99,26.9l-6.7,6.14l1.68,2.08c1.87-2.57,3.85-5.04,5.85-7.11C63.99,26.9,63.99,26.9,63.99,26.9z"/>
	<path class="st5" d="M68.67,47.08c0,0,6.66-0.24,9.96-1.64c-3.11-3.53-8.02-9.86-11.41-14.29c-1.89,2.02-3.83,4.5-5.69,7.12
		L68.67,47.08z"/>
</g>
<path class="st4" d="M74.22,26.22c-0.53,0.14-1.07,0.33-1.61,0.58c-0.33,0.15-0.67,0.35-1.02,0.56c1.93,2.55,2.89,6.53,1.6,10.65
	l2.06,2.52C77.6,35.19,76.62,29.78,74.22,26.22z"/>
<path class="st4" d="M71.2,23.14c-2.73-1.85-6.04-2.13-9.21-0.66c-9.57,4.45-21.93,28.04-22.45,29.05c-0.36,0.69-0.09,1.53,0.6,1.89
	c0.21,0.11,0.43,0.16,0.65,0.16c0.51,0,1-0.28,1.25-0.76c0.12-0.24,12.43-23.74,21.15-27.8c1.78-0.83,3.59-0.88,5.22-0.21
	c0.87-0.65,1.73-1.18,2.56-1.57C71.03,23.2,71.12,23.17,71.2,23.14z"/>
<g>
	<path class="st0" d="M50.61,26.22l-8.61,8.21c2.35,2.37,2.78,4.99,2.56,7.23c2.45-3.95,5.49-8.47,8.67-12.26L50.61,26.22z"/>
	<g>
		<path class="st0" d="M67.76,47.06l-6.69-8.12c-1.82,2.61-3.54,5.31-5.05,7.81C62.62,47.22,67.76,47.06,67.76,47.06z"/>
		<path class="st0" d="M55.74,32.46c-3.34,4.09-6.58,9.13-9.03,13.21c1.66,0.28,3.34,0.5,4.98,0.68c1.8-3.06,4.17-6.88,6.79-10.56
			L55.74,32.46z"/>
	</g>
</g>
<g>
	<path class="st4" d="M42.11,45.67c-3.78-0.44-7.57-0.95-11.46-1.14c-1.94-0.08-3.9-0.12-5.9,0.07c-1.99,0.18-4.05,0.55-6.01,1.54
		c-0.91,0.49-1.78,1.03-2.59,1.68c-0.82,0.62-1.56,1.37-2.21,2.17c-1.29,1.62-2.21,3.51-2.67,5.47c-0.46,1.96-0.54,3.96-0.32,5.9
		c0.22,1.93,0.67,3.83,1.41,5.59c-0.39-1.87-0.54-3.77-0.48-5.63c0.07-1.86,0.34-3.71,0.97-5.4c0.59-1.7,1.53-3.24,2.74-4.48
		c1.22-1.24,2.68-2.24,4.29-2.94c1.51-0.63,3.27-0.86,5.06-0.96c1.8-0.09,3.65,0.02,5.5,0.17c3.27,0.26,6.59,0.69,9.91,1.13
		c0.48-0.88,1.09-1.95,1.79-3.16C42.13,45.67,42.12,45.67,42.11,45.67z"/>
	<g>
		<path class="st4" d="M46.39,46.21c-0.69,1.15-1.3,2.22-1.83,3.15c1.69,0.2,3.39,0.39,5.09,0.55c0.48-0.87,1.08-1.93,1.77-3.11
			C49.75,46.62,48.07,46.42,46.39,46.21z"/>
		<path class="st4" d="M72.99,47.22c-0.93,0.09-1.85,0.24-2.79,0.28c-0.93,0.06-1.86,0.14-2.79,0.16c-0.93,0.05-1.87,0.05-2.8,0.05
			c-1.87-0.01-3.74-0.1-5.61-0.19c-1.09-0.07-2.19-0.16-3.28-0.26c-0.63,1.05-1.22,2.06-1.75,3c3.56,0.22,7.13,0.29,10.72,0.07
			c3.87-0.24,7.74-0.82,11.46-1.95c3.7-1.17,7.26-2.86,10.26-5.24c-3.4,1.75-6.99,2.95-10.66,3.64
			C74.83,46.93,73.91,47.09,72.99,47.22z"/>
	</g>
</g>
<g>
	<path class="st6" d="M36.28,32.75c-4.3,0-7.78,3.48-7.78,7.78c0,1.25,0.3,2.42,0.82,3.46c0.85,0,1.7,0.03,2.55,0.06
		c3.63,0.18,7.17,0.64,10.7,1.05c0.94-1.29,1.5-2.86,1.5-4.57C44.06,36.24,40.58,32.75,36.28,32.75z M38.21,38.08
		c-4.52,0.8-6.56-2.15-5.05-3.41c-0.07,1.06,0.84,2.45,3.62,2.56c2.36,0.09,4.2-0.68,3.4-2.56C40.17,34.68,42.03,37.4,38.21,38.08z"
		/>
	<path class="st7" d="M36.56,34.72c0,0,0.73-7.36,8.01-7.71C43.15,32.33,41.61,33.94,36.56,34.72z"/>
</g>
<g>
	<path class="st7" d="M17.13,27.38c0,0-2.42-4.23-2.16-7.1c0.25-2.87,2.67-2.05,2.93-1.01c0.26,1.04-0.84,1.25-0.84,1.25
		s1.19-0.34,1.38,0.44c0.19,0.78-1.11,1.35-1.57,0.91c1.3,0.96-0.08,2.01-0.8,1.18c0.18,1.49,1.66,4.15,1.66,4.15L17.13,27.38z"/>
	<path class="st7" d="M16.79,27.61c0.17-0.11,0.36-0.2,0.56-0.25c-0.74-1.46-1.96-3.52-3.41-4.49c-2.39-1.61-3.27,0.8-2.63,1.65
		c0.56,0.73,1.26,0.3,1.45,0.16c-0.19,0.15-0.9,0.76-0.48,1.32c0.49,0.64,1.74-0.02,1.7-0.65c-0.07,1.61,1.62,1.2,1.42,0.12
		C15.88,25.96,16.38,26.82,16.79,27.61z"/>
	<path class="st8" d="M28.42,38.13c-2.02-4.91-4.86-11.03-6.57-12.36c-2.43-1.89-8.79-0.06-8.41,4.64
		c0.3,3.75,7.24,11.13,9.97,13.91c0.79-0.17,3.78-0.32,5.37-0.28C28.1,42.88,27.65,40.57,28.42,38.13z M26.15,36.1l-0.19-0.37
		c-0.15-0.03-0.39,0-0.59,0.07c-0.21,0.08-0.41,0.2-0.59,0.36c-0.18,0.15-0.33,0.35-0.48,0.55c-0.14,0.21-0.26,0.43-0.37,0.65
		c0.06-0.24,0.14-0.48,0.24-0.72c0.11-0.23,0.23-0.47,0.4-0.67c0.16-0.21,0.36-0.4,0.61-0.54c0.16-0.09,0.32-0.16,0.51-0.21
		l-0.38-0.72c-0.22-0.02-0.49,0-0.72,0.07c-0.27,0.07-0.53,0.19-0.77,0.35c-0.23,0.17-0.46,0.36-0.64,0.59
		c-0.19,0.23-0.35,0.48-0.5,0.75c0.11-0.28,0.22-0.57,0.39-0.83c0.16-0.27,0.36-0.51,0.58-0.73c0.23-0.21,0.5-0.4,0.8-0.53
		c0.19-0.08,0.39-0.14,0.6-0.18c-0.12-0.22-0.23-0.43-0.35-0.65c-0.28-0.03-0.62,0-0.92,0.09c-0.33,0.09-0.64,0.24-0.93,0.43
		c-0.28,0.2-0.55,0.44-0.77,0.71c-0.23,0.27-0.42,0.58-0.59,0.89c0.13-0.34,0.28-0.67,0.48-0.98c0.19-0.31,0.44-0.59,0.71-0.85
		c0.28-0.25,0.61-0.45,0.96-0.6c0.25-0.1,0.5-0.18,0.78-0.22c-0.13-0.25-0.26-0.5-0.4-0.74c-0.34-0.02-0.72,0.01-1.07,0.09
		c-0.39,0.09-0.78,0.23-1.13,0.44c-0.35,0.21-0.69,0.45-0.97,0.76c-0.29,0.3-0.53,0.64-0.75,1c0.18-0.38,0.38-0.76,0.65-1.09
		c0.25-0.35,0.57-0.64,0.92-0.91c0.35-0.26,0.75-0.46,1.16-0.61c0.29-0.1,0.59-0.17,0.9-0.21c-0.13-0.24-0.27-0.49-0.41-0.73
		c-0.43-0.03-0.9,0.01-1.34,0.1c-0.49,0.1-0.96,0.26-1.4,0.5c-0.44,0.23-0.86,0.52-1.22,0.88c-0.38,0.34-0.68,0.76-0.96,1.19
		c0.24-0.45,0.51-0.9,0.86-1.28c0.33-0.4,0.74-0.74,1.18-1.02c0.44-0.29,0.93-0.51,1.44-0.66c0.38-0.11,0.75-0.19,1.15-0.23
		c-0.05-0.08-0.09-0.16-0.13-0.24c-0.13-0.23-0.27-0.47-0.41-0.7c-0.45-0.03-0.95,0-1.41,0.1c-0.49,0.1-0.96,0.27-1.4,0.5
		c-0.44,0.23-0.86,0.52-1.22,0.88c-0.38,0.34-0.68,0.76-0.96,1.19c0.24-0.45,0.51-0.9,0.86-1.28c0.33-0.4,0.74-0.74,1.18-1.02
		c0.44-0.29,0.93-0.51,1.44-0.66c0.39-0.12,0.77-0.2,1.18-0.23c-0.15-0.24-0.3-0.47-0.45-0.7c-0.04-0.05-0.08-0.1-0.11-0.15
		c-0.46-0.04-0.97,0-1.45,0.1c-0.49,0.1-0.96,0.26-1.4,0.5c-0.44,0.23-0.86,0.52-1.22,0.88c-0.38,0.34-0.68,0.76-0.96,1.19
		c0.24-0.45,0.51-0.9,0.86-1.28c0.33-0.4,0.74-0.74,1.18-1.02c0.44-0.29,0.93-0.51,1.44-0.66c0.38-0.11,0.75-0.19,1.15-0.23
		c-0.05-0.07-0.1-0.14-0.16-0.21c-0.24-0.26-0.5-0.56-0.79-0.62c-0.69-0.19-1.45-0.08-2.17,0.13c-0.73,0.2-1.43,0.52-2.1,0.89
		c0.61-0.47,1.29-0.85,2.01-1.15c0.73-0.27,1.53-0.45,2.35-0.29c0.1,0.01,0.22,0.07,0.33,0.11c0.09,0.06,0.19,0.11,0.27,0.18
		c0.17,0.13,0.31,0.27,0.45,0.42c0.27,0.3,0.51,0.6,0.74,0.92c0.46,0.63,0.86,1.3,1.25,1.96c0.76,1.34,1.46,2.71,2.1,4.11
		c0.64,1.4,1.24,2.81,1.76,4.26L26.15,36.1z"/>
</g>
<g>
	<path class="st9" d="M28.09,18.91l9.05,3.7l-1.97,9.79c0,0-4.54,0.36-6.52,5.04c-1.33-3.65-3.26-7.15-3.26-7.15l1.53-10.71
		C27.01,19.02,27.58,18.7,28.09,18.91z"/>
	<path class="st10" d="M37.89,22.61l6.17-1.21l-1.07,5.5c0,0-4.24,0.36-6.32,5.37l-1.5,0.13L37.89,22.61z"/>
	<path class="st10" d="M28.49,18.68l9.02,3.7l6.4-1.13l-8.17-3.31c-0.35-0.14-0.72-0.2-1.1-0.17L28.49,18.68z"/>
	<g>
		<path class="st11" d="M41.42,20.89L41.42,20.89l0.36-1.46l-5.17-1.23l-0.37,1.51c-0.11,0.46,0.96,1.1,2.4,1.44
			c1.43,0.34,2.68,0.25,2.79-0.21C41.43,20.93,41.42,20.91,41.42,20.89z"/>
		
			<ellipse transform="matrix(0.2318 -0.9728 0.9728 0.2318 11.8757 52.5448)" class="st12" cx="39.21" cy="18.75" rx="0.85" ry="2.66"/>
	</g>
</g>
<g>
	<path class="st7" d="M16.93,41.34C18,41.91,19,42.35,19.9,42.7l-0.22-1.67c-0.91-1.02-1.86-2.13-2.75-3.26V41.34z"/>
	<path class="st7" d="M20.27,43.44l-3.78,1.92c-0.04,0.02-0.08,0.03-0.13,0.03c-0.1,0-0.2-0.06-0.25-0.15
		c-0.07-0.14-0.02-0.31,0.12-0.38l3.32-1.69c-0.89-0.35-1.88-0.8-2.93-1.36l-3.73,1.06c-0.03,0.01-0.05,0.01-0.08,0.01
		c-0.12,0-0.23-0.08-0.27-0.2c-0.04-0.15,0.04-0.3,0.19-0.35l3.19-0.91c-0.9-0.51-1.84-1.12-2.8-1.82l-2.65,0.47
		c-0.02,0-0.03,0-0.05,0c-0.13,0-0.25-0.1-0.28-0.23c-0.03-0.15,0.07-0.3,0.23-0.32l2.13-0.38c-0.92-0.71-1.85-1.5-2.77-2.41
		c-0.11-0.11-0.11-0.29,0-0.4c0.11-0.11,0.29-0.11,0.4,0c0.89,0.87,1.78,1.64,2.67,2.33l-0.4-2.57c-0.02-0.15,0.08-0.3,0.23-0.32
		c0.15-0.02,0.3,0.08,0.32,0.23l0.49,3.14c1,0.73,1.98,1.35,2.91,1.88v-3.98c-0.34-0.45-0.67-0.91-0.99-1.36
		c-2.16-0.62-4.72-1.02-7.81-1.32c1.45,6.76,5.3,10.39,9.21,12.35c0.52-0.35,1.06-0.67,1.61-0.97c1.44-0.73,2.94-1.12,4.43-1.35
		c-0.08-0.08-0.17-0.17-0.25-0.26C21.96,43.99,21.18,43.76,20.27,43.44z"/>
	<path class="st7" d="M21.81,43.35c-0.45-0.48-0.95-1.01-1.47-1.58l0.16,1.15C20.97,43.09,21.41,43.23,21.81,43.35z"/>
</g>
<text transform="matrix(1 0 0 1 18.4126 66.5703)" class="st5 st13 st14">Sukamukti</text>
</svg>
